<svg width="154" height="22" viewBox="0 0 154 22" fill="none" xmlns="http://www.w3.org/2000/svg">
<path d="M0.303955 21V0.200012H6.19196L9.32796 8.71201C9.51996 9.28801 9.70129 9.88535 9.87196 10.504C10.0426 11.1227 10.224 11.7413 10.416 12.36H10.544C10.736 11.7413 10.9173 11.1227 11.088 10.504C11.2586 9.88535 11.44 9.28801 11.632 8.71201L14.64 0.200012H20.528V21H15.536V14.856C15.536 14.152 15.5786 13.3627 15.664 12.488C15.7493 11.592 15.8453 10.696 15.952 9.80001C16.0586 8.90401 16.1546 8.11468 16.24 7.43201H16.112L14.384 12.424L11.824 19.304H8.87996L6.31996 12.424L4.65596 7.43201H4.52796C4.61329 8.11468 4.70929 8.90401 4.81596 9.80001C4.92262 10.696 5.01862 11.592 5.10396 12.488C5.18929 13.3627 5.23196 14.152 5.23196 14.856V21H0.303955Z" fill="black"/>
<path d="M28.8597 21.384C27.857 21.384 26.993 21.16 26.2677 20.712C25.5637 20.2427 25.0197 19.6347 24.6357 18.888C24.2517 18.1413 24.0597 17.3307 24.0597 16.456C24.0597 14.792 24.7424 13.4907 26.1077 12.552C27.473 11.592 29.6917 10.952 32.7637 10.632C32.6357 9.52268 31.889 8.96801 30.5237 8.96801C29.9477 8.96801 29.3397 9.08535 28.6997 9.32001C28.0597 9.53335 27.3237 9.86401 26.4917 10.312L24.5717 6.72801C25.7024 6.04535 26.8437 5.52268 27.9957 5.16001C29.169 4.79735 30.3744 4.61601 31.6117 4.61601C33.7024 4.61601 35.3344 5.21335 36.5077 6.40801C37.681 7.58135 38.2677 9.48001 38.2677 12.104V21H33.7877L33.4037 19.464H33.2757C32.6357 20.04 31.953 20.5093 31.2277 20.872C30.5237 21.2133 29.7344 21.384 28.8597 21.384ZM30.7797 17.16C31.2277 17.16 31.601 17.064 31.8997 16.872C32.1984 16.6587 32.4864 16.392 32.7637 16.072V13.896C31.4624 14.088 30.5557 14.376 30.0437 14.76C29.553 15.144 29.3077 15.56 29.3077 16.008C29.3077 16.776 29.7984 17.16 30.7797 17.16Z" fill="black"/>
<path d="M41.856 21V5.00001H46.336L46.72 7.75201H46.848C47.4453 6.66401 48.1493 5.87468 48.96 5.38401C49.792 4.87201 50.6026 4.61601 51.392 4.61601C51.8826 4.61601 52.2773 4.64801 52.576 4.71201C52.896 4.75468 53.1626 4.82935 53.376 4.93601L52.48 9.67201C52.2026 9.60801 51.9253 9.55468 51.648 9.51201C51.3706 9.44801 51.0506 9.41601 50.688 9.41601C50.112 9.41601 49.504 9.61868 48.864 10.024C48.2453 10.408 47.744 11.1013 47.36 12.104V21H41.856Z" fill="black"/>
<path d="M62.1505 21.384C60.6358 21.384 59.2705 21.0533 58.0545 20.392C56.8385 19.7307 55.8678 18.7813 55.1425 17.544C54.4385 16.2853 54.0865 14.7707 54.0865 13C54.0865 11.2293 54.4811 9.72535 55.2705 8.48801C56.0811 7.22935 57.1371 6.26935 58.4385 5.60801C59.7398 4.94668 61.1478 4.61601 62.6625 4.61601C63.6225 4.61601 64.4865 4.76535 65.2545 5.06401C66.0438 5.36268 66.7371 5.76801 67.3345 6.28001L64.7745 9.80001C64.4331 9.50135 64.1238 9.29868 63.8465 9.19201C63.5691 9.08535 63.2811 9.03201 62.9825 9.03201C61.9585 9.03201 61.1585 9.39468 60.5825 10.12C60.0065 10.824 59.7185 11.784 59.7185 13C59.7185 14.216 60.0171 15.1867 60.6145 15.912C61.2118 16.616 61.9371 16.968 62.7905 16.968C63.2385 16.968 63.6758 16.872 64.1025 16.68C64.5505 16.4667 64.9665 16.2213 65.3505 15.944L67.4625 19.528C66.6731 20.232 65.7985 20.7227 64.8385 21C63.8785 21.256 62.9825 21.384 62.1505 21.384Z" fill="black"/>
<path d="M76.1475 21.384C74.7821 21.384 73.4915 21.0533 72.2755 20.392C71.0808 19.7307 70.0995 18.7813 69.3315 17.544C68.5848 16.2853 68.2115 14.7707 68.2115 13C68.2115 11.2293 68.5848 9.72535 69.3315 8.48801C70.0995 7.22935 71.0808 6.26935 72.2755 5.60801C73.4915 4.94668 74.7821 4.61601 76.1475 4.61601C77.5128 4.61601 78.7928 4.94668 79.9875 5.60801C81.2035 6.26935 82.1848 7.22935 82.9315 8.48801C83.6995 9.72535 84.0835 11.2293 84.0835 13C84.0835 14.7707 83.6995 16.2853 82.9315 17.544C82.1848 18.7813 81.2035 19.7307 79.9875 20.392C78.7928 21.0533 77.5128 21.384 76.1475 21.384ZM76.1475 16.968C76.9795 16.968 77.5661 16.616 77.9075 15.912C78.2701 15.1867 78.4515 14.216 78.4515 13C78.4515 11.784 78.2701 10.824 77.9075 10.12C77.5661 9.39468 76.9795 9.03201 76.1475 9.03201C75.3155 9.03201 74.7181 9.39468 74.3555 10.12C74.0141 10.824 73.8435 11.784 73.8435 13C73.8435 14.216 74.0141 15.1867 74.3555 15.912C74.7181 16.616 75.3155 16.968 76.1475 16.968Z" fill="black"/>
<path d="M91.6902 21.384C90.6662 21.384 89.5782 21.1813 88.4262 20.776C87.2955 20.3493 86.3142 19.8053 85.4822 19.144L87.9142 15.752C89.3649 16.8187 90.6662 17.352 91.8182 17.352C92.3942 17.352 92.7995 17.2773 93.0342 17.128C93.2902 16.9573 93.4182 16.712 93.4182 16.392C93.4182 15.9653 93.1089 15.6347 92.4902 15.4C91.8715 15.144 91.1569 14.856 90.3462 14.536C89.7275 14.28 89.1089 13.96 88.4902 13.576C87.8929 13.1707 87.3915 12.6587 86.9862 12.04C86.5809 11.4213 86.3782 10.6747 86.3782 9.80001C86.3782 8.22135 86.9649 6.96268 88.1382 6.02401C89.3115 5.08535 90.8369 4.61601 92.7142 4.61601C94.0369 4.61601 95.1675 4.84001 96.1062 5.28801C97.0662 5.71468 97.8982 6.19468 98.6022 6.72801L96.1702 9.99201C95.5942 9.56535 95.0289 9.23468 94.4742 9.00001C93.9195 8.76535 93.3969 8.64801 92.9062 8.64801C91.9675 8.64801 91.4982 8.94668 91.4982 9.54401C91.4982 9.94935 91.7862 10.2693 92.3622 10.504C92.9595 10.7173 93.6529 10.9733 94.4422 11.272C95.0822 11.5067 95.7115 11.816 96.3302 12.2C96.9702 12.584 97.4929 13.0853 97.8982 13.704C98.3249 14.3227 98.5382 15.112 98.5382 16.072C98.5382 17.5653 97.9515 18.824 96.7782 19.848C95.6262 20.872 93.9302 21.384 91.6902 21.384Z" fill="black"/>
<path d="M101.679 21V0.200012H107.823C109.935 0.200012 111.791 0.552012 113.391 1.25601C115.012 1.93868 116.271 3.03735 117.167 4.55201C118.063 6.06668 118.511 8.05068 118.511 10.504C118.511 12.9573 118.063 14.9627 117.167 16.52C116.271 18.056 115.044 19.1867 113.487 19.912C111.93 20.6373 110.148 21 108.143 21H101.679ZM107.183 16.584H107.503C108.506 16.584 109.412 16.4133 110.223 16.072C111.034 15.7307 111.674 15.1227 112.143 14.248C112.634 13.3733 112.879 12.1253 112.879 10.504C112.879 8.88268 112.634 7.65601 112.143 6.82401C111.674 5.97068 111.034 5.39468 110.223 5.09601C109.412 4.77601 108.506 4.61601 107.503 4.61601H107.183V16.584Z" fill="black"/>
<path d="M129.186 21.384C127.629 21.384 126.221 21.0533 124.962 20.392C123.725 19.7307 122.744 18.7813 122.018 17.544C121.293 16.2853 120.93 14.7707 120.93 13C120.93 11.272 121.293 9.78935 122.018 8.55201C122.765 7.29335 123.725 6.32268 124.898 5.64001C126.072 4.95735 127.309 4.61601 128.61 4.61601C130.189 4.61601 131.49 4.96801 132.514 5.67201C133.56 6.35468 134.328 7.28268 134.818 8.45601C135.33 9.62935 135.586 10.9307 135.586 12.36C135.586 12.8293 135.554 13.288 135.49 13.736C135.448 14.1627 135.405 14.472 135.362 14.664H126.242C126.498 15.624 126.957 16.296 127.618 16.68C128.28 17.0427 129.058 17.224 129.954 17.224C130.978 17.224 132.066 16.904 133.218 16.264L135.01 19.528C134.157 20.1253 133.197 20.584 132.13 20.904C131.064 21.224 130.082 21.384 129.186 21.384ZM126.178 11.08H130.914C130.914 10.4613 130.754 9.92801 130.434 9.48001C130.136 9.01068 129.57 8.77601 128.738 8.77601C128.141 8.77601 127.608 8.95735 127.138 9.32001C126.669 9.68268 126.349 10.2693 126.178 11.08Z" fill="black"/>
<path d="M142.069 21L136.821 5.00001H142.325L144.053 11.976C144.437 13.576 144.821 15.24 145.205 16.968H145.333C145.717 15.24 146.101 13.576 146.485 11.976L148.213 5.00001H153.461L148.405 21H142.069Z" fill="black"/>
</svg>
